<?xml version="1.0" encoding="UTF-8"?>
<svg xmlns="http://www.w3.org/2000/svg" xmlns:xlink="http://www.w3.org/1999/xlink" viewBox="0 0 427.16 126.75">
  <defs>
    <style>
      .cls-1 {
        letter-spacing: .04em;
      }

      .cls-1, .cls-2, .cls-3 {
        font-family: AvantGardeLT-Medium, 'AvantGarde LT Medium';
        font-weight: 500;
      }

      .cls-4 {
        fill: url(#linear-gradient);
      }

      .cls-4, .cls-5, .cls-6, .cls-7 {
        stroke-width: 0px;
      }

      .cls-8 {
        letter-spacing: .2em;
      }

      .cls-2 {
        letter-spacing: 0em;
      }

      .cls-9 {
        isolation: isolate;
      }

      .cls-10 {
        font-family: Montserrat-Regular, Montserrat;
        font-size: 11.51px;
      }

      .cls-10, .cls-11 {
        fill: #f97316;
      }

      .cls-5 {
        fill: #fff;
      }

      .cls-12 {
        letter-spacing: .19em;
      }

      .cls-3, .cls-13 {
        letter-spacing: .05em;
      }

      .cls-6 {
        fill: url(#linear-gradient-3);
        mix-blend-mode: overlay;
      }

      .cls-11 {
        font-size: 35.58px;
      }

      .cls-7 {
        fill: url(#linear-gradient-2);
        mix-blend-mode: multiply;
      }

      .cls-13 {
        font-family: AvantGardeLT-Bold, 'AvantGarde LT Medium';
        font-weight: 700;
      }

      .cls-14 {
        letter-spacing: .2em;
      }
    </style>
    <linearGradient id="linear-gradient" x1="50.5" y1="4.58" x2="153.32" y2="128.5" gradientUnits="userSpaceOnUse">
      <stop offset="0" stop-color="#f97316"/>
      <stop offset=".25" stop-color="#f66a1c"/>
      <stop offset=".63" stop-color="#ef542e"/>
      <stop offset="1" stop-color="#e63946"/>
    </linearGradient>
    <linearGradient id="linear-gradient-2" x1="85.83" y1="65.9" x2="73.98" y2="108.31" gradientUnits="userSpaceOnUse">
      <stop offset="0" stop-color="#1f0fa1"/>
      <stop offset=".09" stop-color="#2617a4"/>
      <stop offset=".23" stop-color="#3b2dac"/>
      <stop offset=".4" stop-color="#5d51bb"/>
      <stop offset=".6" stop-color="#8c83ce"/>
      <stop offset=".82" stop-color="#c7c3e7"/>
      <stop offset="1" stop-color="#fff"/>
    </linearGradient>
    <linearGradient id="linear-gradient-3" x1="93.14" y1="6.27" x2="155.66" y2="76.7" gradientUnits="userSpaceOnUse">
      <stop offset="0" stop-color="#fff" stop-opacity="0"/>
      <stop offset=".09" stop-color="#fff" stop-opacity=".03"/>
      <stop offset=".22" stop-color="#fff" stop-opacity=".12"/>
      <stop offset=".38" stop-color="#fff" stop-opacity=".26"/>
      <stop offset=".57" stop-color="#fff" stop-opacity=".46"/>
      <stop offset=".78" stop-color="#fff" stop-opacity=".71"/>
      <stop offset="1" stop-color="#fff"/>
    </linearGradient>
  </defs>
  <g class="cls-9">
    <g id="Layer_2" data-name="Layer 2">
      <g id="OBJECTS">
        <g>
          <g>
            <text class="cls-11" transform="translate(186.26 63.02)"><tspan class="cls-13" x="0" y="0">DISH</tspan><tspan class="cls-3" x="91.66" y="0">C</tspan><tspan class="cls-2" x="121.12" y="0">O</tspan><tspan class="cls-3" x="151.26" y="0">VE</tspan><tspan class="cls-1" x="197.38" y="0">R</tspan><tspan class="cls-3" x="219.79" y="0">Y</tspan></text>
            <text class="cls-10" transform="translate(228.02 86.14)"><tspan class="cls-12" x="0" y="0">C</tspan><tspan class="cls-8" x="10.41" y="0">OOKING MADE EA</tspan><tspan class="cls-12" x="150.31" y="0">S</tspan><tspan class="cls-14" x="159.52" y="0">Y</tspan></text>
          </g>
          <g>
            <path class="cls-4" d="M118.2.02c-.38-.02-.77-.02-1.16-.02H5.07C.46,0-1.75,5.66,1.64,8.78l37.45,34.47c11.14,10.25,17.48,24.7,17.48,39.83v43.67h60.47c29.35,0,53.14-23.79,53.14-53.14v-20.45C170.18,24.19,147.01.63,118.2.02Z"/>
            <path class="cls-7" d="M120.92,116.79L39.47,43.57v.04c10.9,10.23,17.1,24.51,17.1,39.47v43.67h60.47s.09,0,.14,0c5.19-.01,7.59-6.48,3.74-9.96Z"/>
            <path class="cls-6" d="M170.18,73.6v-20.45C170.18,24.19,147.01.63,118.2.02c-.38-.02-.77-.02-1.16-.02H34.22l91.92,91.92c16.1,16.1,43.82,4.97,44.04-17.81,0-.17,0-.34,0-.51Z"/>
            <path class="cls-5" d="M106.51,45.96c-.09,0-.17,0-.26,0h-25.29c-1.04,0-1.54,1.28-.77,1.98l8.46,7.79c2.52,2.32,3.95,5.58,3.95,9v9.86h13.66c6.63,0,12-5.37,12-12v-4.62c0-6.54-5.23-11.86-11.74-12Z"/>
          </g>
        </g>
      </g>
    </g>
  </g>
</svg>